<svg width="1527" height="92" viewBox="0 0 1527 92" fill="none" xmlns="http://www.w3.org/2000/svg">
<path d="M4 54.4272L5 54.8424L6 55.2567L7 55.67L8 56.0824L9 56.4937L10 56.9039L11 57.3131L12 57.721L13 58.1278L14 58.5334L15 58.9377L16 59.3406L17 59.7422L18 60.1424L19 60.5411L20 60.9384L21 61.3341L22 61.7283L23 62.1208L24 62.5117L25 62.901L26 63.2885L27 63.6742L28 64.0582L29 64.4403L30 64.8205L31 65.1988L32 65.5751L33 65.9495L34 66.3218L35 66.692L36 67.0601L37 67.4261L38 67.7899L39 68.1515L40 68.5107L41 68.8678L42 69.2224L43 69.5747L44 69.9246L45 70.2721L46 70.6171L47 70.9595L48 71.2995L49 71.6368L50 71.9715L51 72.3036L52 72.633L53 72.9597L54 73.2836L55 73.6047L56 73.9231L57 74.2385L58 74.5511L59 74.8608L60 75.1675L61 75.4713L62 75.7721L63 76.0698L64 76.3644L65 76.656L66 76.9444L67 77.2297L68 77.5117L69 77.7906L70 78.0662L71 78.3386L72 78.6076L73 78.8734L74 79.1357L75 79.3947L76 79.6503L77 79.9024L78 80.1511L79 80.3963L80 80.638L81 80.8762L82 81.1107L83 81.3418L84 81.5692L85 81.793L86 82.0131L87 82.2296L88 82.4423L89 82.6514L90 82.8567L91 83.0582L92 83.256L93 83.4499L94 83.6401L95 83.8264L96 84.0088L97 84.1874L98 84.362L99 84.5328L100 84.6996L101 84.8625L102 85.0214L103 85.1763L104 85.3272L105 85.4742L106 85.617L107 85.7559L108 85.8907L109 86.0214L110 86.148L111 86.2706L112 86.389L113 86.5033L114 86.6135L115 86.7195L116 86.8214L117 86.9191L118 87.0126L119 87.102L120 87.1872L121 87.2681L122 87.3449L123 87.4174L124 87.4857L125 87.5498L126 87.6096L127 87.6652L128 87.7165L129 87.7636L130 87.8064L131 87.845L132 87.8792L133 87.9093L134 87.935L135 87.9565L136 87.9736L137 87.9865L138 87.9951L139 87.9995L140 87.9995L141 87.9952L142 87.9867L143 87.9739L144 87.9568L145 87.9354L146 87.9098L147 87.8798L148 87.8456L149 87.8071L150 87.7644L151 87.7174L152 87.6661L153 87.6106L154 87.5509L155 87.4869L156 87.4186L157 87.3462L158 87.2695L159 87.1886L160 87.1035L161 87.0143L162 86.9208L163 86.8232L164 86.7213L165 86.6154L166 86.5053L167 86.3911L168 86.2727L169 86.1502L170 86.0237L171 85.893L172 85.7583L173 85.6195L174 85.4767L175 85.3299L176 85.179L177 85.0242L178 84.8653L179 84.7025L180 84.5358L181 84.3651L182 84.1905L183 84.012L184 83.8296L185 83.6434L186 83.4533L187 83.2594L188 83.0617L189 82.8603L190 82.655L191 82.446L192 82.2334L193 82.017L194 81.7969L195 81.5732L196 81.3458L197 81.1149L198 80.8803L199 80.6422L200 80.4006L201 80.1555L202 79.9069L203 79.6548L204 79.3992L205 79.1403L206 78.878L207 78.6123L208 78.3434L209 78.0711L210 77.7955L211 77.5167L212 77.2347L213 76.9495L214 76.6611L215 76.3696L216 76.075L217 75.7773L218 75.4767L219 75.1729L220 74.8663L221 74.5566L222 74.2441L223 73.9286L224 73.6104L225 73.2893L226 72.9654L227 72.6388L228 72.3094L229 71.9774L230 71.6427L231 71.3055L232 70.9656L233 70.6231L234 70.2782L235 69.9308L236 69.5809L237 69.2287L238 68.8741L239 68.5171L240 68.1578L241 67.7963L242 67.4326L243 67.0666L244 66.6985L245 66.3283L246 65.9561L247 65.5818L248 65.2054L249 64.8272L250 64.447L251 64.0649L252 63.681L253 63.2953L254 62.9078L255 62.5186L256 62.1277L257 61.7352L258 61.3411L259 60.9454L260 60.5481L261 60.1494L262 59.7493L263 59.3477L264 58.9448L265 58.5405L266 58.135L267 57.7282L268 57.3203L269 56.9112L270 56.5009L271 56.0897L272 55.6773L273 55.264L274 54.8498L275 54.4346L276 54.0186L277 53.6017L278 53.1841L279 52.7658L280 52.3467L281 51.927L282 51.5067L283 51.0859L284 50.6645L285 50.2427L286 49.8204L287 49.3977L288 48.9747L289 48.5514L290 48.1278L291 47.704L292 47.28L293 46.8559L294 46.4317L295 46.0075L296 45.5833L297 45.1591L298 44.735L299 44.311L300 43.8872L301 43.4636L302 43.0403L303 42.6172L304 42.1945L305 41.7722L306 41.3504L307 40.929L308 40.5081L309 40.0878L310 39.6681L311 39.249L312 38.8307L313 38.413L314 37.9962L315 37.5801L316 37.1649L317 36.7506L318 36.3372L319 35.9249L320 35.5135L321 35.1033L322 34.6942L323 34.2861L324 33.8793L325 33.4738L326 33.0695L327 32.6665L328 32.2649L329 31.8647L330 31.4659L331 31.0687L332 30.6729L333 30.2787L334 29.8861L335 29.4951L336 29.1059L337 28.7184L338 28.3326L339 27.9486L340 27.5665L341 27.1862L342 26.8079L343 26.4315L344 26.0571L345 25.6848L346 25.3145L347 24.9464L348 24.5804L349 24.2165L350 23.8549L351 23.4956L352 23.1385L353 22.7838L354 22.4315L355 22.0815L356 21.734L357 21.389L358 21.0465L359 20.7065L360 20.3691L361 20.0344L362 19.7022L363 19.3728L364 19.0461L365 18.7221L366 18.4009L367 18.0826L368 17.767L369 17.4544L370 17.1446L371 16.8378L372 16.534L373 16.2332L374 15.9355L375 15.6407L376 15.3492L377 15.0607L378 14.7754L379 14.4932L380 14.2143L381 13.9386L382 13.6662L383 13.3971L384 13.1313L385 12.8689L386 12.6099L387 12.3542L388 12.102L389 11.8533L390 11.608L391 11.3662L392 11.128L393 10.8933L394 10.6623L395 10.4348L396 10.2109L397 9.99075L398 9.77423L399 9.5614L400 9.35229L401 9.14691L402 8.94531L403 8.7475L404 8.55347L405 8.36325L406 8.17688L407 7.99438L408 7.81577L409 7.64102L410 7.47018L411 7.30331L412 7.14038L413 6.98138L414 6.82639L415 6.67538L416 6.52841L417 6.38547L418 6.24655L419 6.11166L420 5.9809L421 5.85419L422 5.73157L423 5.61307L424 5.49869L425 5.38843L426 5.28232L427 5.18036L428 5.08258L429 4.98898L430 4.89954L431 4.8143L432 4.73328L433 4.65646L434 4.58386L435 4.51547L436 4.45132L437 4.39142L438 4.33575L439 4.28436L440 4.23718L441 4.19431L442 4.15567L443 4.12131L444 4.09125L445 4.06543L446 4.04388L447 4.02664L448 4.01367L449 4.005L450 4.00058L451 4.00049L452 4.00464L453 4.01312L454 4.02585L455 4.04288L456 4.06418L457 4.08975L458 4.11963L459 4.15375L460 4.19214L461 4.2348L462 4.28174L463 4.33292L464 4.38837L465 4.44806L466 4.51196L467 4.58011L468 4.6525L469 4.7291L470 4.80991L471 4.89493L472 4.98413L473 5.07751L474 5.17508L475 5.27682L476 5.38269L477 5.49274L478 5.6069L479 5.72519L480 5.84756L481 5.97406L482 6.10464L483 6.23929L484 6.37799L485 6.52072L486 6.66751L487 6.8183L488 6.97308L489 7.13184L490 7.29456L491 7.46124L492 7.63187L493 7.8064L494 7.9848L495 8.16711L496 8.35327L497 8.54327L498 8.73709L499 8.93472L500 9.13614L501 9.34131L502 9.55023L503 9.76285L504 9.97919L505 10.1992L506 10.4228L507 10.6501L508 10.881L509 11.1155L510 11.3535L511 11.5951L512 11.8402L513 12.0887L514 12.3408L515 12.5962L516 12.8551L517 13.1173L518 13.3829L519 13.6519L520 13.9241L521 14.1996L522 14.4783L523 14.7603L524 15.0455L525 15.3338L526 15.6252L527 15.9197L528 16.2173L529 16.518L530 16.8217L531 17.1283L532 17.4379L533 17.7504L534 18.0657L535 18.384L536 18.705L537 19.0288L538 19.3554L539 19.6847L540 20.0167L541 20.3513L542 20.6886L543 21.0284L544 21.3708L545 21.7157L546 22.063L547 22.4129L548 22.7651L549 23.1197L550 23.4766L551 23.8358L552 24.1973L553 24.561L554 24.9269L555 25.295L556 25.6651L557 26.0374L558 26.4116L559 26.7879L560 27.1661L561 27.5463L562 27.9283L563 28.3122L564 28.6978L565 29.0853L566 29.4745L567 29.8653L568 30.2578L569 30.6519L570 31.0476L571 31.4448L572 31.8435L573 32.2437L574 32.6452L575 33.0481L576 33.4523L577 33.8578L578 34.2646L579 34.6725L580 35.0816L581 35.4918L582 35.9031L583 36.3154L584 36.7287L585 37.1429L586 37.558L587 37.9741L588 38.3909L589 38.8085L590 39.2268L591 39.6459L592 40.0656L593 40.4858L594 40.9067L595 41.328L596 41.7499L597 42.1721L598 42.5948L599 43.0178L600 43.4411L601 43.8647L602 44.2885L603 44.7125L604 45.1366L605 45.5608L606 45.985L607 46.4092L608 46.8334L609 47.2575L610 47.6815L611 48.1053L612 48.5289L613 48.9523L614 49.3753L615 49.798L616 50.2203L617 50.6422L618 51.0636L619 51.4844L620 51.9048L621 52.3245L622 52.7436L623 53.162L624 53.5796L625 53.9965L626 54.4126L627 54.8278L628 55.2421L629 55.6555L630 56.0678L631 56.4792L632 56.8895L633 57.2986L634 57.7067L635 58.1135L636 58.5191L637 58.9234L638 59.3264L639 59.728L640 60.1282L641 60.527L642 60.9243L643 61.3201L644 61.7144L645 62.107L646 62.498L647 62.8872L648 63.2748L649 63.6606L650 64.0446L651 64.4268L652 64.8071L653 65.1855L654 65.5619L655 65.9363L656 66.3087L657 66.679L658 67.0471L659 67.4132L660 67.7771L661 68.1387L662 68.4981L663 68.8552L664 69.2099L665 69.5623L666 69.9123L667 70.2599L668 70.6049L669 70.9475L670 71.2875L671 71.6249L672 71.9597L673 72.2919L674 72.6214L675 72.9482L676 73.2722L677 73.5934L678 73.9119L679 74.2274L680 74.5401L681 74.8499L682 75.1568L683 75.4606L684 75.7615L685 76.0593L686 76.3541L687 76.6457L688 76.9343L689 77.2196L690 77.5018L691 77.7808L692 78.0565L693 78.329L694 78.5982L695 78.864L696 79.1265L697 79.3856L698 79.6413L699 79.8936L700 80.1424L701 80.3877L702 80.6295L703 80.8678L704 81.1025L705 81.3337L706 81.5612L707 81.7851L708 82.0054L709 82.222L710 82.4349L711 82.644L712 82.8495L713 83.0511L714 83.2491L715 83.4431L716 83.6334L717 83.8199L718 84.0024L719 84.1811L720 84.3559L721 84.5268L722 84.6938L723 84.8568L724 85.0158L725 85.1709L726 85.322L727 85.469L728 85.6121L729 85.751L730 85.886L731 86.0168L732 86.1436L733 86.2663L734 86.3849L735 86.4993L736 86.6096L737 86.7159L738 86.8179L739 86.9157L740 87.0094L741 87.0989L742 87.1842L743 87.2653L744 87.3422L745 87.4149L746 87.4834L747 87.5476L748 87.6075L749 87.6633L750 87.7148L751 87.762L752 87.805L753 87.8437L754 87.8781L755 87.9083L756 87.9341L757 87.9557L758 87.9731L759 87.9861L760 87.9949L761 87.9994L762 87.9995L763 87.9955L764 87.9871L765 87.9744L766 87.9575L767 87.9362L768 87.9107L769 87.881L770 87.8469L771 87.8086L772 87.766L773 87.7191L774 87.668L775 87.6126L776 87.553L777 87.4892L778 87.4211L779 87.3488L780 87.2723L781 87.1916L782 87.1066L783 87.0175L784 86.9242L785 86.8267L786 86.725L787 86.6192L788 86.5092L789 86.3952L790 86.2769L791 86.1546L792 86.0282L793 85.8977L794 85.7631L795 85.6245L796 85.4818L797 85.3351L798 85.1844L799 85.0297L800 84.871L801 84.7083L802 84.5417L803 84.3712L804 84.1967L805 84.0184L806 83.8362L807 83.6501L808 83.4601L809 83.2664L810 83.0688L811 82.8675L812 82.6624L813 82.4535L814 82.2409L815 82.0247L816 81.8047L817 81.5811L818 81.3539L819 81.1231L820 80.8887L821 80.6507L822 80.4092L823 80.1642L824 79.9157L825 79.6637L826 79.4083L827 79.1495L828 78.8873L829 78.6218L830 78.3529L831 78.0807L832 77.8053L833 77.5266L834 77.2447L835 76.9596L836 76.6714L837 76.38L838 76.0855L839 75.7879L840 75.4873L841 75.1837L842 74.8771L843 74.5676L844 74.2552L845 73.9398L846 73.6217L847 73.3007L848 72.9769L849 72.6504L850 72.3211L851 71.9892L852 71.6546L853 71.3174L854 70.9776L855 70.6353L856 70.2904L857 69.9431L858 69.5934L859 69.2412L860 68.8866L861 68.5297L862 68.1706L863 67.8091L864 67.4454L865 67.0796L866 66.7116L867 66.3415L868 65.9692L869 65.595L870 65.2188L871 64.8406L872 64.4605L873 64.0785L874 63.6946L875 63.309L876 62.9216L877 62.5324L878 62.1416L879 61.7491L880 61.355L881 60.9594L882 60.5622L883 60.1635L884 59.7634L885 59.3619L886 58.959L887 58.5548L888 58.1494L889 57.7426L890 57.3347L891 56.9257L892 56.5155L893 56.1042L894 55.6919L895 55.2787L896 54.8644L897 54.4493L898 54.0333L899 53.6165L900 53.1989L901 52.7806L902 52.3615L903 51.9419L904 51.5216L905 51.1008L906 50.6794L907 50.2576L908 49.8353L909 49.4127L910 48.9897L911 48.5663L912 48.1428L913 47.719L914 47.295L915 46.8709L916 46.4467L917 46.0225L918 45.5983L919 45.1741L920 44.7499L921 44.326L922 43.9022L923 43.4785L924 43.0552L925 42.6322L926 42.2095L927 41.7872L928 41.3653L929 40.9439L930 40.523L931 40.1027L932 39.6829L933 39.2638L934 38.8454L935 38.4278L936 38.0109L937 37.5948L938 37.1796L939 36.7652L940 36.3519L941 35.9395L942 35.5281L943 35.1178L944 34.7086L945 34.3005L946 33.8937L947 33.4881L948 33.0837L949 32.6807L950 32.2791L951 31.8788L952 31.48L953 31.0827L954 30.6869L955 30.2926L956 29.9L957 29.5089L958 29.1196L959 28.732L960 28.3462L961 27.9621L962 27.58L963 27.1996L964 26.8212L965 26.4448L966 26.0703L967 25.6979L968 25.3276L969 24.9594L970 24.5933L971 24.2293L972 23.8677L973 23.5082L974 23.1511L975 22.7963L976 22.4439L977 22.0939L978 21.7463L979 21.4012L980 21.0586L981 20.7185L982 20.381L983 20.0461L984 19.7139L985 19.3844L986 19.0576L987 18.7335L988 18.4122L989 18.0938L990 17.7781L991 17.4654L992 17.1555L993 16.8486L994 16.5447L995 16.2438L996 15.9459L997 15.6511L998 15.3594L999 15.0708L1000 14.7854L1001 14.5031L1002 14.2241L1003 13.9483L1004 13.6758L1005 13.4066L1006 13.1407L1007 12.8781L1008 12.619L1009 12.3632L1010 12.1109L1011 11.862L1012 11.6166L1013 11.3747L1014 11.1364L1015 10.9016L1016 10.6704L1017 10.4428L1018 10.2188L1019 9.99847L1020 9.78183L1021 9.56885L1022 9.35962L1023 9.15411L1024 8.95239L1025 8.75443L1026 8.56024L1027 8.3699L1028 8.18341L1029 8.00076L1030 7.82199L1031 7.64713L1032 7.47617L1033 7.30914L1034 7.14606L1035 6.98694L1036 6.83182L1037 6.68066L1038 6.53354L1039 6.39044L1040 6.25137L1041 6.11636L1042 5.98544L1043 5.85858L1044 5.73584L1045 5.61719L1046 5.50266L1047 5.39224L1048 5.28601L1049 5.1839L1050 5.08597L1051 4.99222L1052 4.90265L1053 4.81726L1054 4.73608L1055 4.65909L1056 4.58633L1057 4.51782L1058 4.45352L1059 4.39346L1060 4.33765L1061 4.2861L1062 4.2388L1063 4.19574L1064 4.15698L1065 4.12247L1066 4.09222L1067 4.06625L1068 4.04459L1069 4.02719L1070 4.01407L1071 4.00522L1072 4.00067L1073 4.0004L1074 4.00443L1075 4.01273L1076 4.02533L1077 4.04221L1078 4.06335L1079 4.08878L1080 4.1185L1081 4.15247L1082 4.1907L1083 4.23325L1084 4.28L1085 4.33105L1086 4.38632L1087 4.44586L1088 4.50964L1089 4.57764L1090 4.64987L1091 4.72632L1092 4.80698L1093 4.89185L1094 4.9809L1095 5.07416L1096 5.17157L1097 5.27316L1098 5.37888L1099 5.48877L1100 5.60278L1101 5.72092L1102 5.84317L1103 5.96951L1104 6.09995L1105 6.23447L1106 6.37302L1107 6.51562L1108 6.66226L1109 6.8129L1110 6.96753L1111 7.12616L1112 7.28876L1113 7.45529L1114 7.62576L1115 7.80014L1116 7.97845L1117 8.16061L1118 8.34662L1119 8.5365L1120 8.73019L1121 8.92767L1122 9.12897L1123 9.33398L1124 9.54279L1125 9.75528L1126 9.97147L1127 10.1913L1128 10.4149L1129 10.642L1130 10.8728L1131 11.1071L1132 11.345L1133 11.5865L1134 11.8315L1135 12.0799L1136 12.3318L1137 12.5871L1138 12.8459L1139 13.108L1140 13.3735L1141 13.6423L1142 13.9144L1143 14.1898L1144 14.4684L1145 14.7503L1146 15.0353L1147 15.3235L1148 15.6149L1149 15.9093L1150 16.2068L1151 16.5073L1152 16.8109L1153 17.1174L1154 17.4269L1155 17.7393L1156 18.0545L1157 18.3727L1158 18.6936L1159 19.0173L1160 19.3438L1161 19.673L1162 20.0049L1163 20.3394L1164 20.6766L1165 21.0164L1166 21.3586L1167 21.7034L1168 22.0507L1169 22.4005L1170 22.7526L1171 23.1071L1172 23.4639L1173 23.8231L1174 24.1845L1175 24.5481L1176 24.9139L1177 25.2819L1178 25.652L1179 26.0241L1180 26.3983L1181 26.7745L1182 27.1527L1183 27.5328L1184 27.9148L1185 28.2986L1186 28.6842L1187 29.0716L1188 29.4607L1189 29.8515L1190 30.2439L1191 30.638L1192 31.0336L1193 31.4308L1194 31.8294L1195 32.2295L1196 32.631L1197 33.0338L1198 33.438L1199 33.8434L1200 34.2502L1201 34.6581L1202 35.0671L1203 35.4773L1204 35.8885L1205 36.3008L1206 36.7141L1207 37.1283L1208 37.5434L1209 37.9594L1210 38.3762L1211 38.7937L1212 39.212L1213 39.631L1214 40.0507L1215 40.4709L1216 40.8918L1217 41.3131L1218 41.735L1219 42.1572L1220 42.5799L1221 43.0029L1222 43.4262L1223 43.8497L1224 44.2735L1225 44.6975L1226 45.1216L1227 45.5458L1228 45.97L1229 46.3943L1230 46.8185L1231 47.2426L1232 47.6665L1233 48.0904L1234 48.5139L1235 48.9373L1236 49.3604L1237 49.7831L1238 50.2054L1239 50.6273L1240 51.0487L1241 51.4696L1242 51.8899L1243 52.3097L1244 52.7288L1245 53.1472L1246 53.5648L1247 53.9818L1248 54.3979L1249 54.8131L1250 55.2274L1251 55.6408L1252 56.0533L1253 56.4647L1254 56.875L1255 57.2842L1256 57.6923L1257 58.0991L1258 58.5048L1259 58.9091L1260 59.3122L1261 59.7138L1262 60.1141L1263 60.513L1264 60.9103L1265 61.3062L1266 61.7004L1267 62.0931L1268 62.4842L1269 62.8735L1270 63.2611L1271 63.647L1272 64.0311L1273 64.4133L1274 64.7937L1275 65.1721L1276 65.5486L1277 65.9231L1278 66.2955L1279 66.6659L1280 67.0342L1281 67.4003L1282 67.7643L1283 68.1259L1284 68.4854L1285 68.8426L1286 69.1974L1287 69.5499L1288 69.9L1289 70.2476L1290 70.5928L1291 70.9354L1292 71.2755L1293 71.613L1294 71.948L1295 72.2802L1296 72.6098L1297 72.9367L1298 73.2608L1299 73.5821L1300 73.9007L1301 74.2163L1302 74.5291L1303 74.839L1304 75.146L1305 75.45L1306 75.7509L1307 76.0488L1308 76.3437L1309 76.6355L1310 76.9241L1311 77.2096L1312 77.4919L1313 77.771L1314 78.0468L1315 78.3194L1316 78.5887L1317 78.8547L1318 79.1173L1319 79.3765L1320 79.6323L1321 79.8847L1322 80.1336L1323 80.3791L1324 80.621L1325 80.8594L1326 81.0943L1327 81.3256L1328 81.5532L1329 81.7773L1330 81.9977L1331 82.2144L1332 82.4274L1333 82.6367L1334 82.8423L1335 83.0441L1336 83.2421L1337 83.4363L1338 83.6268L1339 83.8133L1340 83.996L1341 84.1749L1342 84.3498L1343 84.5208L1344 84.688L1345 84.8511L1346 85.0103L1347 85.1655L1348 85.3167L1349 85.4639L1350 85.6071L1351 85.7462L1352 85.8813L1353 86.0123L1354 86.1392L1355 86.262L1356 86.3808L1357 86.4954L1358 86.6058L1359 86.7122L1360 86.8143L1361 86.9123L1362 87.0062L1363 87.0958L1364 87.1813L1365 87.2625L1366 87.3396L1367 87.4124L1368 87.481L1369 87.5454L1370 87.6055L1371 87.6614L1372 87.713L1373 87.7604L1374 87.8035L1375 87.8424L1376 87.877L1377 87.9073L1378 87.9333L1379 87.9551L1380 87.9725L1381 87.9857L1382 87.9947L1383 87.9993L1384 87.9996L1385 87.9957L1386 87.9875L1387 87.9749L1388 87.9581L1389 87.9371L1390 87.9117L1391 87.8821L1392 87.8482L1393 87.81L1394 87.7675L1395 87.7209L1396 87.6699L1397 87.6147L1398 87.5552L1399 87.4915L1400 87.4236L1401 87.3514L1402 87.2751L1403 87.1945L1404 87.1097L1405 87.0207L1406 86.9276L1407 86.8302L1408 86.7287L1409 86.623L1410 86.5132L1411 86.3993L1412 86.2812L1413 86.159L1414 86.0327L1415 85.9024L1416 85.7679L1417 85.6295L1418 85.4869L1419 85.3404L1420 85.1898L1421 85.0352L1422 84.8767L1423 84.7142L1424 84.5477L1425 84.3773L1426 84.203L1427 84.0247L1428 83.8427L1429 83.6567L1430 83.4669L1431 83.2733L1432 83.0758L1433 82.8746L1434 82.6696L1435 82.4609L1436 82.2485L1437 82.0324L1438 81.8126L1439 81.5891L1440 81.362L1441 81.1313L1442 80.897L1443 80.6592L1444 80.4178L1445 80.1729L1446 79.9245L1447 79.6727L1448 79.4174L1449 79.1587L1450 78.8967L1451 78.6312L1452 78.3625L1453 78.0904L1454 77.8151L1455 77.5365L1456 77.2547L1457 76.9697L1458 76.6816L1459 76.3903L1460 76.0959L1461 75.7985L1462 75.498L1463 75.1945L1464 74.888L1465 74.5786L1466 74.2663L1467 73.951L1468 73.633L1469 73.3121L1470 72.9884L1471 72.662L1472 72.3328L1473 72.001L1474 71.6665L1475 71.3294L1476 70.9897L1477 70.6474L1478 70.3027L1479 69.9554L1480 69.6057L1481 69.2537L1482 68.8992L1483 68.5424L1484 68.1833L1485 67.8219L1486 67.4583L1487 67.0926L1488 66.7246L1489 66.3546L1490 65.9825L1491 65.6083L1492 65.2321L1493 64.854L1494 64.4739L1495 64.092L1496 63.7082L1497 63.3226L1498 62.9353L1499 62.5462L1500 62.1554L1501 61.763L1502 61.369L1503 60.9734L1504 60.5763L1505 60.1776L1506 59.7776L1507 59.3761L1508 58.9733L1509 58.5692L1510 58.1637L1511 57.757L1512 57.3492L1513 56.9401L1514 56.53L1515 56.1188L1516 55.7065L1517 55.2933L1518 54.8791L1519 54.464L1520 54.048L1521 53.6312L1522 53.2137L1523 52.7953" stroke="#ec4899" stroke-width="7" stroke-miterlimit="10" stroke-linecap="round" stroke-linejoin="round"/>
</svg>
