<svg width="98" height="94" viewBox="0 0 98 94" fill="none" xmlns="http://www.w3.org/2000/svg">
<g clip-path="url(#clip0_1_2)">
<path d="M50.49 1.72C50.23 1.29 49.77 1.02 49.26 0.999999C48.75 0.979999 48.27 1.22 47.98 1.63L0.280002 69.13C-0.189998 69.8 -0.0399985 70.72 0.620002 71.21L31.32 93.71C31.65 93.96 32.08 94.05 32.48 93.97L96.78 81.89C97.26 81.8 97.67 81.48 97.87 81.03C98.07 80.58 98.04 80.06 97.78 79.64L50.49 1.72ZM5.37 70.97L29.19 67.65L26.53 64.99L4.73 68.03L46.45 9L41.17 36.96L34.46 72.45L31.17 89.88L5.37 70.97ZM92.02 79.73L34.08 90.62L49.26 10.29L54.7 37.05C55.84 37.41 56.95 37.85 58.03 38.39L52.39 10.64L92.38 76.53L69.6 64.42L67.38 66.64L92.01 79.74L92.02 79.73Z" fill="white"/>
<path d="M32.12 43.48L20.51 55.09C19.83 55.77 19.83 56.88 20.51 57.56L32.12 69.17C32.66 69.71 33.22 70.21 33.8 70.69L39.89 38.44C37.06 39.52 34.4 41.2 32.12 43.48Z" fill="white"/>
<path d="M75.04 55.09L63.43 43.48C58.46 38.51 51.71 36.4 45.23 37.14L42.88 49.6C44.33 48.59 46.1 48 48.01 48C49.29 48 50.51 48.27 51.61 48.75C52 48.22 52.27 47.6 52.39 46.92C52.59 45.69 54.36 45.69 54.57 46.92C54.86 48.69 56.25 50.08 58.02 50.37C59.25 50.57 59.25 52.34 58.02 52.55C57.35 52.66 56.74 52.92 56.22 53.31C56.73 54.44 57.01 55.68 57.01 57C57.01 61.97 52.98 66 48.01 66C44.9 66 42.15 64.42 40.54 62.02L38.36 73.56C46.57 77.42 56.66 75.96 63.44 69.18L75.05 57.57C75.73 56.89 75.73 55.78 75.05 55.1L75.04 55.09Z" fill="white"/>
<path d="M49.92 51.78C50.14 51.86 50.35 51.95 50.56 52.05C50.73 52.13 50.89 52.23 51.04 52.34C51.12 52.39 51.2 52.43 51.28 52.49C51.5 52.65 51.71 52.83 51.91 53.02L51.93 53.04C52.12 53.23 52.3 53.45 52.46 53.67C52.51 53.75 52.56 53.83 52.61 53.91C52.71 54.07 52.81 54.23 52.9 54.39C53 54.6 53.1 54.81 53.17 55.03C53.23 55.2 53.26 55.37 53.3 55.55C53.32 55.65 53.36 55.75 53.38 55.86C53.4 55.98 53.57 55.98 53.58 55.86C53.6 55.75 53.63 55.65 53.66 55.55C53.7 55.37 53.74 55.2 53.79 55.03C53.87 54.81 53.96 54.6 54.06 54.39C54.14 54.22 54.24 54.06 54.35 53.91C54.4 53.83 54.44 53.75 54.5 53.67C54.66 53.45 54.84 53.23 55.04 53.04C55.24 52.84 55.45 52.66 55.67 52.5C55.75 52.45 55.83 52.4 55.91 52.35C56.07 52.25 56.22 52.15 56.39 52.07C56.6 51.97 56.81 51.87 57.03 51.8C57.2 51.74 57.37 51.71 57.55 51.67C57.65 51.65 57.75 51.61 57.86 51.59C57.98 51.57 57.98 51.4 57.86 51.39C57.75 51.37 57.65 51.34 57.55 51.31C57.38 51.27 57.2 51.23 57.03 51.18C56.81 51.1 56.6 51.01 56.39 50.91C56.22 50.83 56.06 50.73 55.91 50.63C55.83 50.58 55.75 50.54 55.67 50.48C55.22 50.15 54.82 49.76 54.49 49.3C54.44 49.22 54.39 49.14 54.34 49.06C54.24 48.9 54.14 48.75 54.06 48.58C53.96 48.37 53.86 48.16 53.79 47.94C53.73 47.77 53.7 47.6 53.66 47.42C53.64 47.32 53.6 47.22 53.58 47.11C53.56 46.99 53.39 46.99 53.38 47.11C53.36 47.22 53.33 47.32 53.3 47.42C53.26 47.59 53.22 47.77 53.17 47.94C53.09 48.16 53 48.37 52.9 48.58C52.82 48.75 52.72 48.91 52.62 49.06C52.57 49.14 52.53 49.22 52.47 49.3C52.31 49.52 52.13 49.74 51.94 49.93C51.74 50.13 51.53 50.31 51.31 50.47C51.23 50.52 51.15 50.57 51.07 50.62C50.91 50.72 50.75 50.82 50.59 50.91C50.38 51.01 50.17 51.11 49.95 51.18C49.78 51.24 49.61 51.27 49.43 51.31C49.33 51.33 49.23 51.37 49.12 51.39C49 51.41 49 51.58 49.12 51.59C49.23 51.61 49.33 51.64 49.43 51.67C49.61 51.71 49.78 51.75 49.95 51.8L49.92 51.78Z" fill="white"/>
</g>
<defs>
<clipPath id="clip0_1_2">
<rect width="98.0004" height="94" fill="white"/>
</clipPath>
</defs>
</svg>
